<svg id="图层_1" data-name="图层 1" xmlns="http://www.w3.org/2000/svg" viewBox="0 0 470.32 170"><defs><style>.cls-1,.cls-2,.cls-3{fill:#003f87;}.cls-1{fill-rule:evenodd;}.cls-3{font-size:28.86px;font-family:Georgia-Bold, Georgia;font-weight:700;}</style></defs><title>zjulogo</title><path class="cls-1" d="M739.74,291.88c-2.58-.55-1-1.37-1.46-3.58-.35-1.89-2.07-3.76-2-5.18.14-3.8,5-3.56,8-2.35a5.38,5.38,0,0,1,1.68,1.8c1.36,2,3,4.8.85,6.95a8.23,8.23,0,0,1-7,2.36" transform="translate(-373 -207)"/><path class="cls-1" d="M710.35,287.92l-.25-.11c0-.28,0-.56.06-.81a85.44,85.44,0,0,0,7.82-5.1c2-1.63,3.88-3.44,4.47-6.06-5.05,1.65-9.81,5.31-15,5.7-2.42-.6-4.07-1.91-5.76-2.64,0-.13,0-.21,0-.29-2.75-1.8-3-4.12,0-5.12,5.24,1.16,13.28-2.59,18.22-4.47,1.11-.49,4.3-1.62,5.17-2.64,1.16-6.93.41-13.87.81-20.5,1.69-4.79,4.68-1.53,7.65.87.2.4.88.83,1.48,1.73l.28,0c1.26,2,1.61,2.91-.34,4.78a25.32,25.32,0,0,0-1.79,10.62c3.61-.51,5.79-3.67,10-3.73a3.79,3.79,0,0,1-1,5.19c-3,1.46-6.35,2.77-9.8,4.33-.81,3.51-2.2,7.79-4.66,10.63a23.22,23.22,0,0,1-2.57,2.33c-2.24,1.3-4.25,2.88-6.7,3.57-6.77,1.88-6.85,1.56-8.07,1.74" transform="translate(-373 -207)"/><path class="cls-1" d="M645.63,299.74c-2.49-1.16-4.76-4.15-6.1-6,.23-.67.46-1.34.72-2,5.87-4.39,11.68-8.47,17-13.71,1.61-2.49,3.71-5.08,5.44-7.52a.81.81,0,0,1,.3-.1c0-.1,0-.19,0-.26,1.51-1.17,2.14-1.48,3.41.44.1,1.6-2.79,3.32-3.69,4.83-1.13,2.87-2.41,5.79-3.87,8.72-.47.53-.47.53-2.35,3.6a20.86,20.86,0,0,0-4.56,6.34c-1.85,1.08-2.65,4.35-4.88,5.49a12.36,12.36,0,0,0-1.41.17" transform="translate(-373 -207)"/><path class="cls-1" d="M680.29,279.16c-3.62-.15-4.65-2.47-6.62-4.58-.06-1,.52-1.52.59-2.18a3.22,3.22,0,0,0,1.47-.56c1.52-.21,2.06-.12,3.7-.23,2.09-.46,7.42-4.14,9.21-2.56.28,4.39-4.51,8.84-8.35,10.11" transform="translate(-373 -207)"/><path class="cls-1" d="M652.48,272.21c-1.38-1.21-1.65-6.8-1.77-8.55,1-3.13,4.18-3.26,6.81-1.23,2.08,2.75,3.5,3.89,1.31,7.09-2.47,2.15-3.57,2.3-6.35,2.69" transform="translate(-373 -207)"/><path class="cls-1" d="M679.31,269.51c-.38-1.7,2-5.34,1.3-6.22-.88.14-1.78.46-2.7.52-2.18-1.06-4.57-3.71-3.7-5.76,1.61-1.83,1-1.36,3.51-1.52,2.4-1.07,4.79-2.11,7.22-3.14,4.07-.75,5.93,1.48,6.18,5.45-.72,2.57-2.44,4.61-4.12,6.63-2.15,1.17-4.11,2.48-6.07,3.75-.57.07-1.1.18-1.62.29" transform="translate(-373 -207)"/><path class="cls-1" d="M657.09,258c-.86-.76-.5-1.17-.05-1.93-.1-1.67-1.11-3-1.21-4.63.54-2.95,0-4,2.43-5.45,1.89.84,8.51,4.22,6.94,7.93-1.82,2.3-5.49,3.76-8.11,4.08" transform="translate(-373 -207)"/><path class="cls-1" d="M571.36,302.48c-3.94-1.5-7.38-9.31-2.62-11.22a2.26,2.26,0,0,1,1.28-1.58c0-.13,0-.21,0-.29,3.82-3.71,6.33-8.87,9.54-12.94.83-1.56,1.27-3.05,3-3.5.88.79.58,2.56.33,3.91.39.35,1.76.09,2.57-.16,2.66-2.29,6.12-4.3,8.76-6.72.14-1.18.27-2.35.46-3.49-1.86.45-7.94,1.87-6.48-1.56,2.28-.89,5.74-2.85,7-5.32.6-2.49.26-5.26,1.52-7.05,2.55-1.33,5.59,1.91,6.1,4.67,1,1.81,4.23-.44.23,5.16-.84.63-.8,1.84-.63,3.12l.87.07c2.24-1.6,4.68-3.34,7.21-4.79.7-3.59,1.26-6.58,3-9.61,2.47-1.7,5.84.14,8.26,2.07,1.87-.11,3-.9,4.71-2.13a4.47,4.47,0,0,1,1.9-.2,6.68,6.68,0,0,1,.78,3.12c-1.19,3.66-11.67,4.85-9.66,9.11,1.84-.11,2.46-2.11,3.14-3.45,2-1.08,6.47.22,8.62,1.81,2.39,2.9.53,3.88-2.11,5.72-.27.39-.53.78-.76,1.16-.18,5.86-.18,5.86-.1,13.78a14,14,0,0,1-3.2,4.92c0,.08,0,.16,0,.24a1.57,1.57,0,0,1-.29,0c-1,1.78-3.49,3.51-5,1.86,0-6.51.34-13.25.12-19.45a1,1,0,0,0-.33.1c-.47,3.16-3.64,9.12-6.36,11.07a5.13,5.13,0,0,1-5.3-3.42c.25-.64.74-.79,1.26-1.24,1.4-2.88,1-8.2,1-11-2,.29-5.45,4.9-7,6.61-1,.82-2.07,1.63-3.07,2.45-.72,2.41-1.28,4.79-1.91,7.38-.56,1.14-1.11,2.36-1.66,3.56h-.29c-.94,1.61-4,5.81-5.85,3.16a7.35,7.35,0,0,1,0-1,16.06,16.06,0,0,0,2.76-8c-2.5.83-4.15,3.09-6.64,3.25a15.7,15.7,0,0,1-3.83-1.22c0-.13,0-.21,0-.29-.61-.38-1.22-.93-1.59-.78-.46,1.41-.91,2.86-1.32,4.3a100.44,100.44,0,0,0-6.15,16.56,3.63,3.63,0,0,1-2.25,1.31" transform="translate(-373 -207)"/><path class="cls-1" d="M576.27,271.51c-.77-1.12.18-2.59.22-3.88-1.23-3.68-2.19-6.42.16-9.53a10.36,10.36,0,0,1,1.12-.11,30.83,30.83,0,0,1,5.58,5.87c1.77,4.4-3.9,6.38-7.08,7.65" transform="translate(-373 -207)"/><path class="cls-1" d="M579.81,257.28c-.94-.31-.91-.53-1.1-.85.45-.9.87-1.43.69-2.33-2.26-3.45-2.13-8.72,1.77-10.46,1.13.14,1.15,1.1,1.67,2.65,2.53,2.47,7.25,5.52,2.78,8.85-1.89.84-3.93,1.48-5.81,2.14" transform="translate(-373 -207)"/><path class="cls-1" d="M767.77,270.78c-3.52-1.11-2.86-6.89-2.26-9.23,2.57-1.64,6,1.77,6.14,4.79-.66,3.33-.63,3.82-3.88,4.44" transform="translate(-373 -207)"/><path class="cls-1" d="M786.84,297.48a3.3,3.3,0,0,0-.31-.19,32,32,0,0,1-12.85-1.58,1.48,1.48,0,0,1-.21-.89c2.38-1.38,5.73-1,7.55-3.51a20.7,20.7,0,0,0,.33-5.28c-4.47.28-6.86,3.43-10.41,4.71-3,.2-8.42-2.55-9.31-5,0-3.9.81-2.15,5-2.41,5-.89,9.93-3.73,14.74-5.84a5,5,0,0,1,1.58-1c1.07-3.24,1.82-3.81,5.19-4.47a57.76,57.76,0,0,0,5.16-3c.1-.37.2-.75.34-1.13-5.84.69-10.56,5.42-15.22,8.55a7.82,7.82,0,0,1-5.66-.47c-1,.14-6.84,1.17-4-1.15,1.73-.68,3-1.91,4.89-2.72,4.38-2.94,9.45-5.48,14.18-8.2a2.34,2.34,0,0,0-.46-1.32,5.93,5.93,0,0,1,.48-2.26c-.89.31-1.14.25-1.3.91-2.8,1.24-4,3.78-6.35,1.1a5.33,5.33,0,0,1-4.83,4.33c-2.51-1.29-2.56-5.49-3-7.43-.18-.23-.53-1.85-1.22-3.74-1.14-2.31-3.23-4.89-1.84-7,1.79-1.1,2.5-1.51,4,.9a21.75,21.75,0,0,1,4.25,4.05l.28,0c.8,2.13,2.74,4.93,2.54,7.65,1.31-.78,3.19-2.29,2.22-4-2.17-1.17-.94-3.19.58-3.94a11.09,11.09,0,0,0,2.46-.07,1,1,0,0,0-.34-.84c-1.8-.62-1.46-1.06-1-2.52a3.37,3.37,0,0,1-2.1-4.56c6.11-1.53,6.11-1.53,9-2.45,1.91-2.37,4-8.87,7.66-7.66a8.26,8.26,0,0,1,1.73,5.93,10.81,10.81,0,0,0-1.3,2.88,8.22,8.22,0,0,1,1.11,0c2.56-1.26,3.74-2.77,5.25,1,2.47,1.33,3.35,1,2.43,4.58-1.8,3.61-3.73,7.47-5.73,11.08a1.67,1.67,0,0,0,0,.49c.45.09.91.19,1.37.33a32.27,32.27,0,0,1,.27,5.62c-1.54,2.26-3.48,2.26-5.93,2.58-3.11,1.54-5.91,2.83-8.84,4.57a4.26,4.26,0,0,0,.2,1.91c1.48,0,3-.05,4.52-.06,1.67,1.08,1.53,4.13.49,5.91a10.39,10.39,0,0,0-4,1.17l-.46,2.53c.12,3.24,1.81,11.06-3,11.81m9.56-39.94c1.51-1.54,2.56-3,2.43-5.13-1.26-1.11-3.45-1.26-4.76-1.19-.17.6-.17.6-1.68,3.4a2.29,2.29,0,0,0,.47.21,1.33,1.33,0,0,0-.45.21,1.23,1.23,0,0,0,.11.26c.66.1,1-.43,1.33-.89,2.37-.4,2.42.46,2.25,3a1.38,1.38,0,0,1,.3.15" transform="translate(-373 -207)"/><path class="cls-2" d="M458,207a85,85,0,1,1-85,85,85.17,85.17,0,0,1,85-85m0,3.39A81.62,81.62,0,1,0,539.61,292,81.77,81.77,0,0,0,458,210.39" transform="translate(-373 -207)"/><path class="cls-2" d="M428.14,328.24A47.48,47.48,0,0,1,415.5,312,46.55,46.55,0,0,1,411,292a47,47,0,0,1,94,0,46.55,46.55,0,0,1-4.48,20,47.27,47.27,0,0,1-12.65,16.26l-1.07-1.3A46,46,0,0,0,499,311.27a45.28,45.28,0,1,0-82,0,45.88,45.88,0,0,0,12.21,15.67Z" transform="translate(-373 -207)"/><polygon class="cls-1" points="12.21 113.39 9.01 104.78 10.76 104.17 25.45 106.41 23.21 100.38 24.95 99.77 27.88 107.65 26.13 108.25 11.45 106.02 13.96 112.77 12.21 113.39"/><polygon class="cls-1" points="17.8 125.11 16.93 123.39 23.83 119.84 21.64 115.58 14.73 119.13 13.84 117.4 28.61 109.82 29.5 111.54 23.28 114.73 25.47 118.99 31.69 115.78 32.57 117.5 17.8 125.11"/><polygon class="cls-1" points="24.81 134.46 19.56 127.13 33.41 118.52 38.41 125.5 36.88 126.46 33.06 121.15 28.77 123.81 32.27 128.7 30.72 129.66 27.23 124.78 22.28 127.83 26.35 133.51 24.81 134.46"/><polygon class="cls-1" points="36.58 145.99 34.83 144.5 45.02 131.98 46.78 133.45 36.58 145.99"/><path class="cls-1" d="M417.49,358.5l2.08-4.45L417,352.22l-3.77,3.68-1.72-1.34,11.95-11.8,2.4,1.46-6.37,15.43Zm3.05-6.61,2.49-5.72-.23-.2-4.31,4.4Z" transform="translate(-373 -207)"/><polygon class="cls-1" points="56.47 157.29 54.31 156.28 55.56 144.77 50.84 154.45 48.69 153.46 56.18 138.64 58.13 139.53 57.22 150.47 62.09 141.44 63.9 142.19 56.47 157.29"/><path class="cls-1" d="M440.61,367.63l-1.39-.47.13-1.3a2.45,2.45,0,0,1-1.29.53,3.38,3.38,0,0,1-1.63-.14,4.13,4.13,0,0,1-2.55-2.7c-.55-1.43-.44-3.41.33-5.91.85-2.75,1.89-4.65,3.13-5.73a5.18,5.18,0,0,1,4.76-1.14c1.78.57,2.94,2.77,2.43,5.8l-2.13-.17c.37-1.3.18-3.33-1.09-3.74a2.77,2.77,0,0,0-2.92.8,13.29,13.29,0,0,0-2.15,4.65q-1,3.24-.56,4.72a2.45,2.45,0,0,0,1.51,1.84,2.06,2.06,0,0,0,1.94-.28,4.44,4.44,0,0,0,1.41-2.38l.3-1-2.56-.82.53-1.66,4.18,1.35Z" transform="translate(-373 -207)"/><path class="cls-1" d="M462.71,364a5.35,5.35,0,0,1-1.19,3.51,4.11,4.11,0,0,1-3.46,1.18,4.24,4.24,0,0,1-3.39-1.44,5.48,5.48,0,0,1-1-3.59l.37-11.32,2,.08-.37,11.32a3.29,3.29,0,0,0,.62,2.36,2.39,2.39,0,0,0,1.79.82,2.32,2.32,0,0,0,1.84-.69,3.29,3.29,0,0,0,.77-2.31l.37-11.31,2,.07Z" transform="translate(-373 -207)"/><polygon class="cls-1" points="101.06 159.97 99.28 160.26 93.67 149.44 94.53 161.05 92.41 161.35 91.18 145.09 93.61 144.87 98.23 152.44 97.38 144.29 99.14 143.98 101.06 159.97"/><polygon class="cls-1" points="107.13 158.28 105.05 158.91 100.71 143.53 102.8 142.88 107.13 158.28"/><polygon class="cls-1" points="112.75 138.78 115.39 155.76 113.33 156.78 104.33 142.36 106.31 141.52 112.57 151.35 110.83 139.61 112.75 138.78"/><polygon class="cls-1" points="129.47 148.41 121.87 152.51 113.61 138.31 120.83 134.41 121.75 136 116.23 138.97 118.8 143.37 123.86 140.63 124.78 142.21 119.72 144.94 122.67 150.01 128.55 146.82 129.47 148.41"/><path class="cls-1" d="M511.12,349.33l-1.67,1.44-5.89-4.88L502,347.28l4,5.4-1.67,1.74-9.74-13.67,3.1-2.22a5.28,5.28,0,0,1,3.48-1.08c3,.37,4.33,2.4,4.19,4.78a6.62,6.62,0,0,1-.39,2.22Zm-10.49-9.63c-1.24-.33-2.22.62-3.11,1.32l3.24,4.28a5.6,5.6,0,0,0,2.2-2.16c.32-1.55-.37-2.9-2.33-3.44" transform="translate(-373 -207)"/><path class="cls-1" d="M516.37,336.13a4.67,4.67,0,0,1-1.85,8.51,5.58,5.58,0,0,1-3.22-.56l.76-1.73a5.57,5.57,0,0,0,2.18.29c2.9-.55,2.77-3.55,1.08-4.8a3.07,3.07,0,0,0-2.12-.41c-2,.21-3.2,1.68-5.37,1.82a4,4,0,0,1-4.42-3.62,4.79,4.79,0,0,1,.7-3.36,4.32,4.32,0,0,1,5.87-1.09l-.76,1.78c-1.05-.55-2.92-.55-3.62.55a2.38,2.38,0,0,0-.38,1.75,2.08,2.08,0,0,0,2.39,1.91c2.11-.25,3.53-2,5.61-1.92a6.65,6.65,0,0,1,3.15.88" transform="translate(-373 -207)"/><polygon class="cls-1" points="150.54 127.03 149.32 128.53 135.31 119.75 136.54 118.25 150.54 127.03"/><polygon class="cls-1" points="143.47 109.32 141.92 112.19 155.15 119.96 154.25 121.61 141.03 113.84 139.48 116.71 137.83 115.73 141.82 108.34 143.47 109.32"/><polygon class="cls-1" points="145.9 98.38 153.96 105.6 159.35 107.9 158.69 109.72 153.7 107.79 142.22 107.53 142.77 105.67 150.79 105.81 145.1 100.59 145.9 98.38"/><path class="cls-1" d="M408.35,345.74c-1.43,1.42-2.76,2.17-4,2.21a4.43,4.43,0,0,1-3.36-1.48,4.49,4.49,0,0,1-1.36-3.26,4.15,4.15,0,0,1,.55-1.94l1.82,1.11a2,2,0,0,0-.24.89,2.21,2.21,0,0,0,.62,1.69,2.4,2.4,0,0,0,1.93.85,4.54,4.54,0,0,0,2.46-1.52l8.08-8,1.51,1.53Z" transform="translate(-373 -207)"/><path class="cls-1" d="M435.82,342.94l-5.66-3.49.52-.9,2.1,1.3,3.36-5.86-2.1-1.31.45-.79a5.32,5.32,0,0,0,1.91.83,1.2,1.2,0,0,0,1.19-.57l1.21.75-4.52,7.87,2.05,1.29Zm16.88-3.57a1.23,1.23,0,0,0-.47-1.22,3.56,3.56,0,0,0-1.86-.72,4.05,4.05,0,0,0-1.94.14,1.35,1.35,0,0,0-.94,1,1,1,0,0,0,.2.9,3.09,3.09,0,0,0,1,.78c.2.09.5.26.92.44a11.61,11.61,0,0,0,1.15.49,3.72,3.72,0,0,0,1.41-.75,2,2,0,0,0,.55-1.05m-.73,5.07a1.3,1.3,0,0,0-.18-1,4.18,4.18,0,0,0-1.3-.95l-.89-.39-1.26-.54a3.88,3.88,0,0,0-1.51.74,2,2,0,0,0-.71,1.16,1.68,1.68,0,0,0,.55,1.62,3.5,3.5,0,0,0,2,.89,4,4,0,0,0,2.21-.22,1.71,1.71,0,0,0,1.08-1.27m-3.51,2.49a9.22,9.22,0,0,1-2.07-.51,5.56,5.56,0,0,1-1.49-.86,2.88,2.88,0,0,1-.8-1.11,2.32,2.32,0,0,1-.09-1.23,2.3,2.3,0,0,1,1-1.4,5.08,5.08,0,0,1,2.17-.81V341a4.42,4.42,0,0,1-1.51-1.18,1.55,1.55,0,0,1-.29-1.34,2.37,2.37,0,0,1,1.7-1.71,6.92,6.92,0,0,1,3.52-.29,6.48,6.48,0,0,1,3.25,1.19,2,2,0,0,1,.9,2,2.06,2.06,0,0,1-.88,1.25,4.43,4.43,0,0,1-2,.79v0a5.61,5.61,0,0,1,1.86,1.28,1.82,1.82,0,0,1,.39,1.61,2.81,2.81,0,0,1-1.88,2,7.42,7.42,0,0,1-3.79.36M468,340.72a4.19,4.19,0,0,0-.29-1.68,2.4,2.4,0,0,0-.79-1,3.27,3.27,0,0,0-.92-.45,5.1,5.1,0,0,0-1-.11,3.1,3.1,0,0,0-2,.59,2.48,2.48,0,0,0-.51,2.81,2.06,2.06,0,0,0,.81.72,2.6,2.6,0,0,0,.88.28,8.54,8.54,0,0,0,1.05.07,6.51,6.51,0,0,0,1.41-.15,5.87,5.87,0,0,0,1.32-.41c0-.07,0-.15,0-.27s0-.24,0-.38m-7.85-.86a2.83,2.83,0,0,1,.39-1.45,4,4,0,0,1,1.05-1.12,5,5,0,0,1,1.56-.69,6.9,6.9,0,0,1,1.86-.26,7.5,7.5,0,0,1,1.91.24,4.57,4.57,0,0,1,1.48.68,3.78,3.78,0,0,1,1.22,1.46,5.34,5.34,0,0,1,.44,2.31,6.78,6.78,0,0,1-.43,2.38,4.48,4.48,0,0,1-1.25,1.89,6,6,0,0,1-2.12,1.2,9.51,9.51,0,0,1-3,.43l-.88,0c-.3,0-.6-.08-.86-.12v-1.32h.1a4.1,4.1,0,0,0,.81.2,8,8,0,0,0,1.1.08,5,5,0,0,0,3.16-.88,3.41,3.41,0,0,0,1.29-2.52,7.77,7.77,0,0,1-1.55.54,6.93,6.93,0,0,1-1.62.18,8.94,8.94,0,0,1-1.54-.13,4.75,4.75,0,0,1-1.4-.48,3,3,0,0,1-1.25-1.06,2.75,2.75,0,0,1-.43-1.53m22.2-8.7-.38,10.5-1.6,1,.14-9.91-6.13,3-.53-1.2,7.7-4Z" transform="translate(-373 -207)"/><path class="cls-1" d="M485.74,246.27c-1.24-.61-.37-.82-.3-2,.06-1-.58-2.14-.39-2.85.55-1.89,3-1.17,4.3-.19a2.47,2.47,0,0,1,.63,1.11c.44,1.14.88,2.77-.43,3.57a4.23,4.23,0,0,1-3.81.34" transform="translate(-373 -207)"/><path class="cls-1" d="M471.46,240.68l-.1-.08a2.35,2.35,0,0,1,.13-.4,46.8,46.8,0,0,0,4.54-1.6,5.7,5.7,0,0,0,3-2.51c-2.73.21-5.58,1.47-8.24,1a15.9,15.9,0,0,1-2.58-2c0-.06,0-.1,0-.15-1.17-1.24-1-2.43.64-2.56,2.49,1.22,7,.32,9.7,0a10.55,10.55,0,0,0,2.92-.7c1.43-3.34,1.91-6.92,2.92-10.21,1.43-2.19,2.54-.18,3.73,1.39.05.22.33.51.53,1.05l.15,0c.38,1.15.45,1.64-.76,2.35a13,13,0,0,0-2.2,5.11c1.88.19,3.36-1.13,5.45-.65a2,2,0,0,1-1.11,2.49c-1.71.35-3.53.61-5.45,1a13.24,13.24,0,0,1-3.64,4.76,11.09,11.09,0,0,1-1.58.86,16.21,16.21,0,0,1-3.8,1,18,18,0,0,1-4.27-.11" transform="translate(-373 -207)"/><path class="cls-1" d="M430.06,252.79a10.39,10.39,0,0,1-4.34-1.87,11.11,11.11,0,0,1,0-1.15,88.9,88.9,0,0,0,5.95-10.47c.32-1.59.87-3.36,1.27-5a.75.75,0,0,1,.13-.11l-.05-.12c.53-.9.79-1.2,1.83-.47.37.8-.76,2.27-.92,3.22,0,1.71-.06,3.47-.23,5.26a12.39,12.39,0,0,0-.47,2.32,11.76,11.76,0,0,0-1.06,4.17c-.73.92-.48,2.76-1.39,3.81a6.43,6.43,0,0,0-.69.37" transform="translate(-373 -207)"/><path class="cls-1" d="M443.68,235.24c-1.89.64-2.89-.33-4.32-1-.23-.48-.05-.89-.14-1.24a2,2,0,0,0,.64-.59c.73-.4,1-.47,1.85-.86,1-.66,3-3.63,4.21-3.18,1,2.2-.55,5.44-2.24,6.88" transform="translate(-373 -207)"/><path class="cls-1" d="M428,237.29c-.95-.35-2.21-3.16-2.63-4-.1-1.8,1.49-2.5,3.24-2,1.62,1,2.58,1.28,2.11,3.37a5.38,5.38,0,0,1-2.72,2.67" transform="translate(-373 -207)"/><path class="cls-1" d="M441.22,230.48c-.54-.79-.07-3.13-.58-3.45-.43.24-.83.59-1.29.82-1.33-.11-3.09-1-3.05-2.22.46-1.26.23-.89,1.49-1.49,1-1,2-2,3.07-3.06,1.93-1.21,3.33-.44,4.26,1.54a10.13,10.13,0,0,1-.77,4.24c-.87,1-1.61,2.09-2.35,3.14-.28.16-.53.32-.78.48" transform="translate(-373 -207)"/><path class="cls-1" d="M427.5,229.07c-.58-.23-.48-.5-.4-1-.39-.84-1.19-1.34-1.56-2.14-.32-1.62-.82-2.06.14-3.28,1.15.05,5.23.44,5.16,2.68a7.33,7.33,0,0,1-3.34,3.72" transform="translate(-373 -207)"/><path class="cls-1" d="M406.61,285.09c-1.77,1.22-6,.42-5.45-2.12a1.16,1.16,0,0,1-.29-1l-.13-.07c-.45-2.66-1.89-5.21-2.67-7.7-.41-.8-.91-1.41-.59-2.27.58-.16,1.23.48,1.72,1,.27-.06.55-.7.67-1.13-.19-1.76,0-3.78-.29-5.58-.45-.38-.9-.79-1.33-1.18-.35.89-1.5,3.84-2.5,2.25.27-1.21.45-3.22-.24-4.44-.87-.95-2.12-1.62-2.51-2.64.18-1.46,2.4-1.8,3.7-1.23,1.06.08,1-1.89,2.23,1.39,0,.53.54.86,1.12,1.17l.28-.36c0-1.39-.05-2.91.07-4.39a14.61,14.61,0,0,1-3.16-4c0-1.52,1.73-2.41,3.23-2.87a4.23,4.23,0,0,0,.47-2.58,2.17,2.17,0,0,1,.46-.85,3.3,3.3,0,0,1,1.52.57c1.2,1.55-1.3,6.28,1.05,6.66.48-.8-.19-1.64-.55-2.31.14-1.16,1.95-2.63,3.23-3.08,1.89-.16,1.77.89,1.79,2.52.09.24.17.45.27.67,2.4,1.74,2.4,1.74,5.73,4a7,7,0,0,1,1.13,2.75l.11.06-.08.14c.46.91.47,2.46-.65,2.61-2.73-1.86-5.44-4-8.1-5.65,0,.06,0,.13,0,.17a11.1,11.1,0,0,1,2.8,5.84,2.58,2.58,0,0,1-2.95,1.23c-.19-.28-.11-.53-.16-.88-.8-1.42-3.14-2.77-4.33-3.57-.46.92.47,3.68.75,4.82.06.65.1,1.32.15,2,.81,1,1.64,1.92,2.54,2.92.32.56.66,1.14,1,1.72a.54.54,0,0,0-.07.13c.39.84,1.26,3.34-.36,3.34a4.73,4.73,0,0,1-.44-.28,8.27,8.27,0,0,0-2.56-3.46c-.38,1.28.11,2.62-.55,3.71A8.2,8.2,0,0,1,401,274.3l-.13-.07c-.33.14-.74.24-.78.44.46.58.93,1.19,1.42,1.79a51.75,51.75,0,0,0,5.16,7.31,1.85,1.85,0,0,1-.09,1.32" transform="translate(-373 -207)"/><path class="cls-1" d="M395.07,274.15c-.69,0-1-.81-1.57-1.21-1.89-.53-3.31-.92-3.93-2.8a4.67,4.67,0,0,1,.27-.49,15.89,15.89,0,0,1,4.05-.65c2.35.51,1.56,3.46,1.18,5.15" transform="translate(-373 -207)"/><path class="cls-1" d="M390.13,268.59c-.4.29-.48.23-.67.21-.25-.44-.35-.77-.78-.94-2.09-.07-4.25-1.63-3.86-3.75.37-.44.78-.18,1.58.06,1.76-.35,4.39-1.45,4.49,1.38-.18,1-.5,2.06-.76,3" transform="translate(-373 -207)"/><path class="cls-2" d="M497.91,271.27H477.24c-6,0-9.13,5.9-11.41,11.26l-3.48-7.85,5.85-2.15c-3.43-3.24-14.1-5-15.5-.13l-2.52,10.13c-2-4.57-4.79-11.25-11.11-11.25h-21c2.73,4.83,5.33,6.56,15,6.15l1.26,3.32-10.58.05c3.13,5.76,4.93,6,13.45,5.76l1.8,4-8.32.3c1.79,4.07,3.67,5.82,10.8,5.49l1.4,3.53-6.62,0c2.49,4.11,3.71,6,9,5.52l1.41,3.85h-4.59c2,4.43,4.29,4.6,7.11,5.05,2.53.38,2.89,5.14-.06,6.66l8.9,14.44,8.91-14.45c-3-1.52-2.59-6.27-.06-6.66,2.82-.44,5.13-.61,7.1-5.06h-4.58l1.4-3.84c5.24.47,6.47-1.41,9-5.51l-6.62,0,1.4-3.53c7.14.33,9-1.42,10.8-5.49l-8.31-.3,1.8-4c8.51.23,10.31,0,13.44-5.77l-10.58,0,1.26-3.33c9.65.41,12.25-1.32,15-6.14" transform="translate(-373 -207)"/><path class="cls-2" d="M529.39,261.37l.08-.17c.29-.75.28-1.06.2-1.18s-.41-.26-.93-.4a2.69,2.69,0,0,0-.47-.08l-.29-.06-.09-.2a3.28,3.28,0,0,0-.33-.3l-.4-.14-.09,0,.51-.39a3.53,3.53,0,0,1,1.25-.55l0-.12.2.07a3.73,3.73,0,0,0,1.28-2.52,1.34,1.34,0,0,0-1.16-.45,9.54,9.54,0,0,0-2.4.53,15.63,15.63,0,0,1-1.6.45l-.19-.1c-1.32-.62-1.37-.65-4.14-2.11a1.28,1.28,0,0,0-.44.56,1.5,1.5,0,0,0,.07,1.27l.26.2,0,0h0l-.65.35-.17.1h0l-.2.18a1.44,1.44,0,0,0,.17.36l0,.3a.79.79,0,0,1-.27.6l-.08.32v0h0l-.4-.32a10.24,10.24,0,0,1-1-.82,1.86,1.86,0,0,0-.34,0,.85.85,0,0,0-.64.26c-.12.16-.1.37,0,.66l0,.15c-.09.4-.42,1.08-1.65,1.09H515a1,1,0,0,0-.44.1c0,.83.36.9,1.24,1a10.79,10.79,0,0,1,1.16.22.7.7,0,0,1,.25-.05,1.05,1.05,0,0,1,.5.16l.66.26.23.06.11.05-.79.39a2.45,2.45,0,0,0-.81.58,1.8,1.8,0,0,1-.36.68l0,.17-.33-.07-1.78-.44-.92-.25c-1.61-.43-3.63-.95-5.53-1.29a7.2,7.2,0,0,0-1.32-.31l-.9-.11,0,.25c.22.17.52.39,1,.68l.06.15a3.71,3.71,0,0,0,1.67,1.94,21.42,21.42,0,0,0,2.14.29c2.36.27,4.81.55,6.73,2l.5.26.13,0,0,0h0l-.71.36a2.07,2.07,0,0,0-.57.39l-.21-.05a27.39,27.39,0,0,1-3.1-.77,3,3,0,0,0-1.65-.69,2.77,2.77,0,0,0-1.37.53l-.11,0,0,0-.06,0-.23-.08a3.19,3.19,0,0,0-1-.2l-2-.66a23.71,23.71,0,0,1-5.7-2.43,9.33,9.33,0,0,1-1.1-1.12c-.09-.12-.16-.18-.2-.18h0l-.16-.21a2.44,2.44,0,0,0-.68.6c-.35,1.13.65,3.79,1.56,4.58a10.18,10.18,0,0,0,2,.54,7.12,7.12,0,0,1,3.61,1.43l.32.09h0l-.3.41a10.5,10.5,0,0,1-1.36,1.4l-.23.19a3,3,0,0,0-.4.39l-.23,0a3.91,3.91,0,0,1-.51,0,4.73,4.73,0,0,1-2.31-.8,3.66,3.66,0,0,0-.74-.31l-.12.23a16.08,16.08,0,0,0,3.83,4.4l.15.23a1.15,1.15,0,0,0,.61.17h0c1.19,0,2.49-1.67,3.45-2.88.2-.26.39-.5.61-.74l.23-.17c.91-.67,1-.72.93-.72l.23.05a9,9,0,0,1,2,.91,2.09,2.09,0,0,0,1.37-1.8l-.29-.26c-.43-.4-.85-.79-1.29-1.18l-.23-.05.14-.35a3,3,0,0,1,.7-.93l0-.16.3.08c1.28.29,2.43.64,3.83,1.07l1.23.42.3.21a3.2,3.2,0,0,0,2,.92,1.27,1.27,0,0,0,.45-.09,7.62,7.62,0,0,0,1.48-1.89h0s0,0,0-.05c-.23-.35-.34-.45-.38-.45l.22-.27a1.34,1.34,0,0,1,.37-.28c2.07-.65,4.32-1.47,6-2.06,1-.63,1.1-.69.75-1.62-.06-.15-.14-.34-.26-.6m-8.09,1.24.34-.3c.47-.43.67-.64.71-.85s-.11-.19-.32-.33l-.1,0-.23,0a.89.89,0,0,1-.72-.34l-.16-.12v-.17l.14-.43-.08,0,.45-.15a7.92,7.92,0,0,0,1.78-.65l.11-.2.29.25a4.38,4.38,0,0,1,1.55,2.48l-.15.18a3.73,3.73,0,0,1-3,1.17l-.28.07-.16-.45-.19-.12Z" transform="translate(-373 -207)"/><path class="cls-2" d="M512.48,259a2.24,2.24,0,0,1-1.29-.41c-.25-1,.49-2.05,1-2.84.18-.25.32-.45.43-.64l.09-.23.18-.34c.22-.41.43-.83.63-1.29.07-.24.13-.47.19-.69.33-1.28.57-2.09,1.22-2.32.5.08.75.15.87.33s.08.45,0,.93l-.08.2a2.24,2.24,0,0,1,.13.6,7.52,7.52,0,0,1,.09,2.26l0,.29a5.77,5.77,0,0,1-.2.77,5.84,5.84,0,0,1-1.3,2.55l-.28.26-.18.11a2.72,2.72,0,0,1-1.43.46Z" transform="translate(-373 -207)"/><path class="cls-2" d="M512.48,258.93h0a2.85,2.85,0,0,0,1.41-.47l.17-.1.28-.25a5.81,5.81,0,0,0,1.28-2.55,4.11,4.11,0,0,0,.2-.75l0-.29a7.34,7.34,0,0,0-.1-2.26c0-.21-.06-.44-.09-.63h0l.08-.17c.09-.46.14-.73,0-.9s-.35-.24-.83-.32c-.62.22-.86,1-1.16,2.21-.07.26-.13.5-.22.78-.2.47-.42.87-.63,1.29l-.18.35-.09.22a6,6,0,0,1-.43.65c-.53.78-1.26,1.82-1,2.77a2.14,2.14,0,0,0,1.26.42" transform="translate(-373 -207)"/><path class="cls-2" d="M507.92,257.8a2.27,2.27,0,0,1-1-.47c-.7-1.57,1.8-3.35,2.09-3.55a1,1,0,0,1,.78.7,2.86,2.86,0,0,1-.47,2.57c-.76.52-1.07.75-1.35.75Z" transform="translate(-373 -207)"/><path class="cls-2" d="M507.92,257.75h0c.27,0,.59-.23,1.32-.73a2.78,2.78,0,0,0,.45-2.52,1,1,0,0,0-.7-.69c-.29.2-2.76,2-2.09,3.49a2.21,2.21,0,0,0,1,.45" transform="translate(-373 -207)"/><text class="cls-3" transform="translate(177.79 133.25)">Zhejiang University</text></svg>